# Tiled2Unity generated file. Do not modify by hand.
# Wavefront file for 'class_mesh_0006.obj'

# Vertices (Count = 80)
v -56 -140 0
v -88 -140 0
v -88 -108 0
v -56 -108 0
v -140 -140 0
v -172 -140 0
v -172 -108 0
v -140 -108 0
v -224 -140 0
v -256 -140 0
v -256 -108 0
v -224 -108 0
v -308 -140 0
v -340 -140 0
v -340 -108 0
v -308 -108 0
v -392 -140 0
v -424 -140 0
v -424 -108 0
v -392 -108 0
v -56 -196 0
v -88 -196 0
v -88 -164 0
v -56 -164 0
v -140 -196 0
v -172 -196 0
v -172 -164 0
v -140 -164 0
v -224 -196 0
v -256 -196 0
v -256 -164 0
v -224 -164 0
v -308 -196 0
v -340 -196 0
v -340 -164 0
v -308 -164 0
v -392 -196 0
v -424 -196 0
v -424 -164 0
v -392 -164 0
v -56 -252 0
v -88 -252 0
v -88 -220 0
v -56 -220 0
v -140 -252 0
v -172 -252 0
v -172 -220 0
v -140 -220 0
v -224 -252 0
v -256 -252 0
v -256 -220 0
v -224 -220 0
v -308 -252 0
v -340 -252 0
v -340 -220 0
v -308 -220 0
v -392 -252 0
v -424 -252 0
v -424 -220 0
v -392 -220 0
v -56 -308 0
v -88 -308 0
v -88 -276 0
v -56 -276 0
v -140 -308 0
v -172 -308 0
v -172 -276 0
v -140 -276 0
v -224 -308 0
v -256 -308 0
v -256 -276 0
v -224 -276 0
v -308 -308 0
v -340 -308 0
v -340 -276 0
v -308 -276 0
v -392 -308 0
v -424 -308 0
v -424 -276 0
v -392 -276 0

# Texture cooridinates (Count = 4)
vt 0.4375 0.6875
vt 0.5 0.6875
vt 0.5 0.75
vt 0.4375 0.75

# Normal
vn 0 0 -1

# Mesh description
g class_mesh_0006

# Faces
f 1/1/1 2/2/1 3/3/1 4/4/1
f 5/1/1 6/2/1 7/3/1 8/4/1
f 9/1/1 10/2/1 11/3/1 12/4/1
f 13/1/1 14/2/1 15/3/1 16/4/1
f 17/1/1 18/2/1 19/3/1 20/4/1
f 21/1/1 22/2/1 23/3/1 24/4/1
f 25/1/1 26/2/1 27/3/1 28/4/1
f 29/1/1 30/2/1 31/3/1 32/4/1
f 33/1/1 34/2/1 35/3/1 36/4/1
f 37/1/1 38/2/1 39/3/1 40/4/1
f 41/1/1 42/2/1 43/3/1 44/4/1
f 45/1/1 46/2/1 47/3/1 48/4/1
f 49/1/1 50/2/1 51/3/1 52/4/1
f 53/1/1 54/2/1 55/3/1 56/4/1
f 57/1/1 58/2/1 59/3/1 60/4/1
f 61/1/1 62/2/1 63/3/1 64/4/1
f 65/1/1 66/2/1 67/3/1 68/4/1
f 69/1/1 70/2/1 71/3/1 72/4/1
f 73/1/1 74/2/1 75/3/1 76/4/1
f 77/1/1 78/2/1 79/3/1 80/4/1

