# Tiled2Unity generated file. Do not modify by hand.
# Wavefront file for 'class_mesh_0008.obj'

# Vertices (Count = 28)
v 0 -56 0
v -32 -56 0
v -32 -24 0
v 0 -24 0
v -56 -112 0
v -88 -112 0
v -88 -80 0
v -56 -80 0
v -392 -112 0
v -424 -112 0
v -424 -80 0
v -392 -80 0
v -392 -140 0
v -424 -140 0
v -424 -108 0
v -392 -108 0
v -140 -224 0
v -172 -224 0
v -172 -192 0
v -140 -192 0
v -308 -224 0
v -340 -224 0
v -340 -192 0
v -308 -192 0
v -56 -280 0
v -88 -280 0
v -88 -248 0
v -56 -248 0

# Texture cooridinates (Count = 13)
vt 0.75 0.875
vt 0.8125 0.875
vt 0.8125 0.9375
vt 0.75 0.9375
vt 0.8125 0.0625
vt 0.875 0.0625
vt 0.875 0.125
vt 0.8125 0.125
vt 0.75 0.125
vt 0.8125 0.1875
vt 0.75 0.1875
vt 0.75 0.0625
vt 0.875 0.1875

# Normal
vn 0 0 -1

# Mesh description
g class_mesh_0008

# Faces
f 1/1/1 2/2/1 3/3/1 4/4/1
f 5/5/1 6/6/1 7/7/1 8/8/1
f 9/9/1 10/8/1 11/10/1 12/11/1
f 13/12/1 14/5/1 15/8/1 16/9/1
f 17/8/1 18/7/1 19/13/1 20/10/1
f 21/5/1 22/6/1 23/7/1 24/8/1
f 25/5/1 26/6/1 27/7/1 28/8/1

